<?xml version="1.0" standalone="no"?>
<!DOCTYPE svg PUBLIC "-//W3C//DTD SVG 20010904//EN"
 "http://www.w3.org/TR/2001/REC-SVG-20010904/DTD/svg10.dtd">
<svg version="1.0" xmlns="http://www.w3.org/2000/svg"
 width="2048.000000pt" height="1315.000000pt" viewBox="0 0 2048.000000 1315.000000"
 preserveAspectRatio="xMidYMid meet">

<g transform="translate(0.000000,1315.000000) scale(0.100000,-0.100000)"
fill="#000000" stroke="none">
<path d="M2853 10802 c-887 -906 -1631 -1672 -1654 -1702 -57 -77 -135 -240
-159 -335 -57 -224 -46 -457 31 -668 66 -181 -21 -89 1748 -1859 l1626 -1628
1212 0 c667 0 1213 3 1213 6 0 3 -871 875 -1936 1938 l-1936 1931 1936 1978
c1065 1087 1936 1980 1936 1982 0 3 -541 5 -1202 5 l-1203 0 -1612 -1648z"/>
<path d="M9225 12441 c-3 -7 -22 -93 -41 -192 -19 -99 -43 -216 -54 -260 -75
-294 -232 -555 -428 -711 -91 -72 -156 -106 -332 -172 -111 -42 -135 -55 -135
-71 0 -16 24 -29 135 -71 176 -66 241 -100 332 -172 196 -156 353 -417 428
 -711 11 -44 36 -162 55 -262 33 -176 45 -214 60 -190 3 7 22 93 41 192 19 99
43 216 54 260 75 294 232 555 428 711 91 72 156 106 332 172 111 42 135 55
135 71 0 16 -24 29 -135 71 -176 66 -241 100 -332 172 -196 156 -353 417 -428
711 -11 44 -36 162 -55 262 -33 176 -45 214 -60 190z"/>
<path d="M13701 12353 c53 -54 925 -946 1939 -1982 l1843 -1883 -1939 -1939
-1939 -1939 1215 0 1215 0 1621 1623 c1077 1078 1633 1641 1658 1680 56 86
105 198 134 306 22 84 25 116 26 261 0 139 -3 179 -22 253 -29 115 -82 237
-142 329 -36 55 -452 485 -1672 1730 l-1623 1657 -1205 0 -1205 1 96 -97z"/>
<path d="M12242 11288 c-5 -7 -40 -175 -77 -373 -74 -402 -98 -507 -149 -677
-135 -443 -357 -836 -635 -1122 -125 -128 -211 -200 -341 -285 -130 -86 -219
-126 -518 -237 -141 -52 -263 -102 -269 -111 -7 -9 -13 -24 -13 -33 0 -9 6
 -24 13 -33 6 -9 129 -59 271 -112 295 -108 382 -148 516 -236 132 -86 217
-158 345 -290 323 -334 569 -812 694 -1349 11 -47 50 -247 86 -445 37 -198 71
-366 77 -372 6 -7 16 -13 23 -13 7 0 17 6 23 13 5 6 40 174 77 372 74 400 97
506 149 677 136 445 351 827 631 1117 128 132 213 204 345 290 133 88 218 127
515 236 143 53 266 103 273 112 6 9 12 24 12 33 0 9 -6 24 -12 33 -7 9 -129
59 -270 111 -299 111 -388 151 -518 237 -128 84 -216 157 -335 280 -124 128
-162 174 -257 314 -149 218 -267 461 -358 735 -66 198 -98 335 -176 755 -36
198 -71 366 -76 373 -6 6 -16 12 -23 12 -7 0 -17 -6 -23 -12z"/>
<path d="M7530 9808 c0 -32 -75 -375 -95 -433 -59 -177 -174 -354 -291 -450
-69 -55 -145 -95 -269 -140 -120 -44 -120 -56 3 -101 241 -87 371 -200 486
-422 62 -121 93 -219 132 -421 18 -96 36 -176 39 -179 11 -11 17 11 46 169 34
185 71 305 130 423 100 199 243 337 417 403 37 14 91 34 120 45 28 11 52 26
52 33 0 7 -24 22 -52 33 -29 11 -84 32 -122 46 -269 102 -464 384 -536 776
-35 195 -41 220 -51 220 -5 0 -9 -1 -9 -2z"/>
<path d="M7802 6952 c34 -38 293 -310 573 -606 281 -296 510 -541 510 -546 0
-9 -240 -258 -848 -882 l-299 -308 363 0 364 1 479 495 c264 272 488 509 498
525 31 51 51 145 43 206 -13 108 -38 139 -550 677 l-480 505 -358 0 -359 1 64
-68z"/>
<path d="M9880 4875 l0 -265 1300 0 1300 0 0 265 0 265 -1300 0 -1300 0 0
-265z"/>
<path d="M5402 2918 c3 -871 5 -937 22 -988 59 -178 174 -294 348 -351 73 -24
74 -24 538 -24 461 0 466 0 533 23 182 63 301 206 342 411 14 67 16 135 13
418 -3 334 -4 339 -29 409 -51 141 -143 241 -279 301 -106 48 -157 53 -562 53
l-378 0 0 -195 0 -195 368 0 c342 0 370 -2 410 -20 33 -15 47 -29 62 -62 18
-39 20 -67 20 -338 0 -287 -1 -297 -22 -340 -42 -82 -35 -81 -495 -78 -388 3
-403 4 -429 24 -15 11 -37 33 -48 48 -21 27 -21 36 -24 932 l-2 904 -196 0
-195 0 3 -932z"/>
<path d="M1385 3693 c-258 -36 -476 -229 -526 -468 -18 -86 -16 -266 5 -344
52 -201 206 -358 416 -427 49 -16 111 -19 605 -24 539 -5 551 -5 590 -27 87
-46 120 -107 120 -223 0 -75 -3 -91 -28 -132 -18 -31 -44 -57 -75 -75 l-47
-28 -792 -3 -793 -2 0 -196 0 -195 813 3 812 3 81 28 c100 33 213 106 277 177
154 172 192 483 87 708 -61 131 -155 222 -295 288 -131 61 -169 64 -718 64
-420 0 -501 2 -538 15 -180 64 -198 356 -27 447 l43 23 698 3 697 3 0 194 0
195 -687 -1 c-379 -1 -701 -4 -718 -6z"/>
<path d="M13502 3689 c-49 -14 -107 -77 -120 -132 -16 -61 -17 -1814 -1 -1870
14 -51 61 -102 112 -122 38 -14 111 -16 667 -13 611 4 627 4 705 26 264 74
456 234 571 475 73 155 78 192 79 567 0 321 -1 339 -23 420 -48 173 -126 305
-251 422 -128 122 -307 204 -491 227 -106 14 -1201 13 -1248 0z m1241 -394
c134 -28 254 -113 320 -226 15 -26 37 -83 48 -128 19 -75 20 -104 17 -349 -4
-244 -6 -272 -26 -326 -32 -86 -63 -135 -124 -192 -58 -55 -89 -74 -177 -107
-54 -21 -76 -22 -548 -25 l-493 -3 0 679 c0 373 3 682 7 685 3 4 209 7 457 7
353 0 466 -3 519 -15z"/>
<path d="M3250 2675 c0 -566 3 -591 75 -740 72 -149 189 -257 353 -326 137
-57 177 -60 733 -57 l505 3 41 27 c24 16 49 44 62 70 21 44 21 51 21 781 l0
737 -195 0 -195 0 0 -615 0 -616 -383 3 -382 3 -68 33 c-49 24 -79 48 -107 83
-69 88 -70 94 -70 631 l0 478 -195 0 -195 0 0 -495z"/>
<path d="M7800 2985 l0 -185 445 0 c488 0 484 0 540 -59 l30 -32 3 -338 c3
-337 3 -337 -20 -371 -13 -18 -36 -43 -51 -54 -28 -20 -41 -21 -425 -24 -396
-3 -397 -2 -441 20 -66 34 -86 67 -86 143 0 71 17 103 75 142 33 23 35 23 411
23 l379 0 0 185 0 186 -427 -3 c-422 -3 -429 -3 -483 -26 -78 -34 -172 -104
-213 -159 -75 -104 -105 -188 -114 -319 -11 -171 42 -311 158 -418 70 -65 138
-101 235 -126 71 -18 111 -20 498 -20 448 0 496 4 589 51 119 60 215 171 259
297 23 66 23 75 23 472 0 374 -1 409 -19 455 -47 123 -138 225 -251 281 -123
60 -158 64 -662 64 l-453 0 0 -185z"/>
<path d="M9935 3151 c-195 -49 -329 -172 -391 -361 -16 -50 -18 -110 -22 -647
l-3 -593 195 0 195 0 3 563 c3 516 4 565 21 594 38 70 19 68 544 71 l473 3 0
194 0 195 -472 -1 c-415 0 -482 -3 -543 -18z"/>
<path d="M11180 2675 c0 -566 3 -591 75 -740 72 -149 189 -257 353 -326 137
-57 177 -60 733 -57 l505 3 41 27 c24 16 49 44 62 70 21 44 21 51 21 781 l0
737 -195 0 -195 0 0 -615 0 -616 -383 3 -382 3 -68 33 c-49 24 -79 48 -107 83
-69 88 -70 94 -70 631 l0 478 -195 0 -195 0 0 -495z"/>
<path d="M16250 3160 c-145 -26 -280 -125 -353 -258 -59 -109 -67 -170 -67
-542 0 -198 4 -361 11 -396 17 -95 64 -181 138 -254 78 -77 142 -113 247 -140
70 -18 111 -20 461 -20 l383 0 0 185 0 185 -368 0 c-362 0 -368 0 -412 23 -87
44 -85 35 -88 400 -3 318 -2 323 20 366 46 89 27 86 471 89 258 2 404 0 428
-7 21 -6 53 -29 73 -51 33 -36 46 -36 98 0 69 -23 118 -69 149 -34 23 -36 23
-412 23 l-379 0 0 -185 0 -185 398 0 c433 0 465 3 566 58 70 37 165 135 203
207 51 97 66 172 61 305 -6 131 -17 169 -86 273 -49 75 -116 132 -204 172 -110
50 -159 55 -603 54 -225 -1 -430 -5 -455 -9z"/>
<path d="M17860 2448 c0 -479 4 -736 11 -761 14 -50 71 -113 116 -128 48 -16
262 -6 368 16 271 57 522 188 737 385 211 193 423 510 567 846 56 133 131 335
131 355 0 5 -89 9 -203 9 l-203 0 -33 -97 c-67 -200 -200 -449 -336 -631 -215
 -288 -464 -461 -704 -488 l-61 -7 0 612 0 611 -195 0 -195 0 0 -722z"/>
</g>
</svg>
<?xml version="1.0" standalone="no"?>
<!DOCTYPE svg PUBLIC "-//W3C//DTD SVG 20010904//EN"
 "http://www.w3.org/TR/2001/REC-SVG-20010904/DTD/svg10.dtd">
<svg version="1.0" xmlns="http://www.w3.org/2000/svg"
 width="1400.000000pt" height="350.000000pt" viewBox="0 0 1400.000000 350.000000"
 preserveAspectRatio="xMidYMid meet">

<g transform="translate(0.000000,350.000000) scale(0.100000,-0.100000)"
fill="#000000" stroke="none">
<path d="M0 1750 l0 -1750 7000 0 7000 0 0 1750 0 1750 -7000 0 -7000 0 0
-1750z m2015 858 c-55 -56 -104 -107 -110 -114 -5 -6 -140 -143 -300 -303
l-289 -292 399 -399 400 -400 -250 0 -250 0 -346 343 c-368 363 -369 365 -369
458 0 74 35 117 380 468 l335 341 250 0 250 0 -100 -102z m2322 -243 c205
-209 345 -360 355 -382 22 -47 23 -122 3 -171 -11 -25 -126 -147 -353 -374
l-337 -338 -255 1 -255 0 399 394 c219 216 397 398 395 404 -4 10 -185 196
-593 609 l-201 202 252 0 251 0 339 -345z m1853 300 l0 -45 -110 0 -110 0 0
-205 0 -205 -45 0 -45 0 0 205 c0 287 5 294 198 295 l112 0 0 -45z m3958 3 l3
-38 -45 0 -46 0 0 41 0 40 43 -3 c41 -3 42 -4 45 -40z m-7533 -13 c15 -103 62
-173 143 -211 l56 -27 -42 -16 c-83 -32 -144 -119 -158 -220 -4 -28 -10 -51
-14 -51 -4 0 -11 21 -15 48 -16 106 -80 197 -157 222 -45 14 -48 25 -10 35 79
19 152 115 168 221 8 57 20 56 29 -1z m2705 -25 l0 -40 -146 0 c-81 0 -154 -5
-165 -10 -13 -8 -19 -21 -19 -46 0 -47 22 -54 167 -54 126 0 157 -10 187 -60
23 -41 21 -121 -5 -154 -40 -51 -63 -56 -259 -56 l-181 0 3 43 3 42 175 3
c150 2 177 5 188 19 17 24 15 40 -8 63 -18 18 -33 20 -140 20 -136 0 -168 10
-200 63 -39 63 -19 150 43 187 28 18 51 20 195 20 l162 0 0 -40z m1090 -15 l0
-55 76 0 75 0 -3 -42 -3 -43 -72 -3 -73 -3 0 -129 0 -130 -45 0 -45 0 0 129 0
130 -52 3 -53 3 -3 43 -3 42 55 0 56 0 0 55 0 55 45 0 45 0 0 -55z m2660 15
l0 -40 -170 0 -171 0 3 -142 3 -143 168 -3 167 -2 0 -45 0 -45 -176 0 -176 0
-34 34 -34 34 0 189 c0 104 3 193 7 196 3 4 98 7 210 7 l203 0 0 -40z m-3319
-86 c42 -21 59 -68 59 -164 0 -144 -30 -170 -195 -170 -167 0 -195 25 -195
175 0 148 30 174 198 175 74 0 111 -4 133 -16z m439 -29 l0 -45 -95 0 -95 0 0
45 0 45 95 0 95 0 0 -45z m500 -52 l1 -98 92 98 c128 136 147 132 147 -30 0
-57 4 -103 8 -103 12 0 75 88 116 163 l37 67 44 0 c25 0 45 -2 45 -5 0 -13
-66 -135 -100 -185 -47 -69 -130 -147 -166 -156 -48 -12 -58 4 -64 101 l-5 89
-80 -92 c-82 -93 -114 -114 -140 -92 -12 10 -15 43 -15 176 l0 164 40 0 40 0
0 -97z m810 82 c16 -9 36 -29 45 -45 20 -39 21 -190 0 -230 -27 -53 -48 -60
-178 -60 l-119 0 -34 34 c-28 28 -34 42 -34 75 0 52 21 94 55 109 14 7 66 12
115 12 l90 0 0 -40 0 -39 -87 -3 c-84 -3 -88 -4 -91 -27 -2 -13 2 -28 10 -32
21 -14 182 -11 196 3 7 7 12 41 12 83 0 42 -5 76 -12 83 -8 8 -47 12 -110 12
l-98 0 0 40 0 40 105 0 c75 0 115 -4 135 -15z m448 -27 l-3 -43 -110 -5 -110
-5 -3 -127 -3 -128 -39 0 -40 0 0 136 c0 76 5 144 11 155 24 46 67 59 187 59
l113 0 -3 -42z m380 9 c51 -49 51 -117 0 -168 -29 -28 -32 -29 -129 -29 l-99
0 0 40 0 39 88 3 c83 3 87 4 90 27 5 34 -12 41 -110 41 -76 0 -89 -2 -98 -19
-14 -27 -13 -144 2 -159 7 -7 44 -12 95 -12 l83 0 0 -40 0 -40 -90 0 c-148 0
-180 30 -180 168 0 97 13 138 54 163 27 17 46 19 148 17 113 -3 118 -4 146
-31z m1128 7 c62 -46 69 -65 73 -200 l3 -124 -46 0 -46 0 0 110 c0 145 -4 150
-130 150 l-90 0 0 -130 0 -130 -40 0 -40 0 0 163 c0 117 4 167 13 176 9 9 47
11 144 9 114 -3 135 -6 159 -24z m464 11 c53 -27 60 -57 60 -235 0 -230 -14
-250 -180 -250 l-90 0 0 40 0 40 78 0 c42 0 83 4 90 8 9 7 12 46 10 163 l-3
154 -100 0 -100 0 -3 -82 -3 -83 91 0 90 0 0 -45 0 -45 -90 0 c-149 0 -180 30
-180 170 0 93 18 143 59 165 37 20 232 20 271 0z m230 -160 l0 -175 -45 0 -45
0 0 175 0 175 45 0 45 0 0 -175z m386 149 c62 -46 69 -65 73 -200 l3 -124 -46
0 -46 0 0 110 c0 145 -4 150 -130 150 l-90 0 0 -130 0 -130 -40 0 -40 0 0 163
c0 117 4 167 13 176 9 9 47 11 144 9 114 -3 135 -6 159 -24z m482 -7 c51 -49
51 -117 0 -168 -29 -28 -32 -29 -129 -29 l-99 0 0 40 0 39 88 3 c83 3 87 4 90
27 5 34 -12 41 -110 41 -76 0 -89 -2 -98 -19 -14 -27 -13 -144 2 -159 7 -7 44
-12 95 -12 l83 0 0 -40 0 -40 -90 0 c-148 0 -180 30 -180 168 0 97 13 138 54
163 27 17 46 19 148 17 113 -3 118 -4 146 -31z m430 0 c51 -49 51 -117 0 -168
-29 -28 -32 -29 -129 -29 l-99 0 0 40 0 39 88 3 c83 3 87 4 90 27 5 34 -12 41
-110 41 -76 0 -89 -2 -98 -19 -14 -27 -13 -144 2 -159 7 -7 44 -12 95 -12 l83
0 0 -40 0 -40 -90 0 c-148 0 -180 30 -180 168 0 97 13 138 54 163 27 17 46 19
148 17 113 -3 118 -4 146 -31z m400 -9 l-3 -43 -110 -5 -110 -5 -3 -127 -3
-128 -39 0 -40 0 0 136 c0 76 5 144 11 155 24 46 67 59 187 59 l113 0 -3 -42z
m-2818 -78 l0 -40 -135 0 -135 0 0 40 0 40 135 0 135 0 0 -40z m-5796 13 c3
-10 10 -46 16 -80 41 -232 140 -375 310 -444 44 -18 79 -37 77 -43 -2 -5 -39
-23 -83 -39 -65 -25 -90 -41 -140 -91 -93 -94 -133 -186 -175 -400 -6 -32 -14
-54 -18 -50 -4 5 -15 52 -25 104 -23 122 -58 209 -113 287 -54 77 -90 105
-190 149 -43 18 -79 38 -81 43 -2 5 28 21 67 36 112 42 179 102 244 215 30 53
72 191 82 273 7 57 19 73 29 40z m-970 -335 c11 -70 51 -127 105 -151 l46 -20
-35 -15 c-19 -7 -44 -21 -54 -30 -26 -24 -66 -111 -66 -146 0 -40 -13 -22 -29
39 -16 64 -53 113 -104 134 l-40 17 49 25 c55 27 89 77 100 147 3 23 10 42 14
42 4 0 11 -19 14 -42z m4806 -420 c0 -350 2 -393 17 -410 14 -16 34 -18 195
-18 231 0 218 -11 218 179 0 187 7 181 -211 181 l-159 0 0 86 0 86 188 -4
c210 -3 241 -12 300 -83 44 -54 52 -96 52 -271 0 -146 -2 -163 -24 -209 -13
-27 -36 -62 -52 -77 -57 -53 -85 -58 -311 -58 -188 0 -212 2 -253 21 -56 25
-86 53 -113 104 -21 39 -22 52 -25 453 l-3 412 90 0 91 0 0 -392z m-1295 242
l0 -85 -311 -3 -311 -2 -24 -26 c-19 -20 -24 -37 -24 -76 0 -42 4 -53 28 -74
28 -24 30 -24 256 -24 252 0 296 -7 367 -59 129 -95 138 -314 18 -420 -78 -69
-93 -71 -486 -71 l-348 0 0 85 0 85 334 0 c198 0 345 4 361 10 33 12 59 71 51
115 -4 17 -18 43 -32 56 -25 24 -28 24 -282 29 -239 5 -260 7 -297 27 -83 45
-134 121 -142 214 -13 143 64 260 195 295 34 9 130 12 347 11 l300 -2 0 -85z
m5249 60 c82 -33 165 -112 202 -192 29 -62 29 -65 29 -248 0 -179 -1 -187 -27
-242 -37 -79 -99 -142 -177 -181 l-66 -32 -300 -3 -301 -3 -24 26 -25 27 -3
386 c-2 260 0 399 8 424 19 67 28 69 345 65 268 -3 283 -4 339 -27z m-4884
-413 c0 -187 2 -216 18 -246 33 -62 65 -71 249 -71 l163 0 0 265 0 265 85 0
85 0 0 -329 0 -330 -27 -21 c-26 -21 -35 -21 -278 -18 -240 3 -252 4 -295 27
-68 35 -127 98 -150 159 -18 47 -20 78 -20 282 l0 230 85 0 85 0 0 -213z
m2276 186 c52 -28 100 -82 114 -130 8 -24 10 -102 8 -214 -3 -175 -3 -176 -33
-224 -22 -36 -45 -57 -84 -77 -53 -28 -54 -28 -255 -28 -114 0 -218 5 -241 11
-62 17 -130 93 -146 163 -24 108 26 217 122 266 34 18 59 20 224 20 l185 0 0
-80 0 -80 -163 0 c-193 0 -210 -6 -205 -73 4 -62 22 -67 221 -67 165 0 168 0
192 25 24 23 25 29 25 163 0 198 15 186 -239 190 l-201 4 0 79 0 80 218 -3
c201 -3 220 -5 258 -25z m874 -58 l0 -85 -198 0 c-163 0 -201 -3 -220 -16 -22
-15 -22 -18 -22 -265 l0 -249 -90 0 -90 0 0 243 c0 284 7 324 70 387 60 60
101 68 343 69 l207 1 0 -85z m270 -128 c0 -187 2 -216 18 -246 33 -62 65 -71
249 -71 l163 0 0 265 0 265 85 0 85 0 0 -329 0 -330 -27 -21 c-26 -21 -35 -21
-278 -18 -240 3 -252 4 -295 27 -68 35 -127 98 -150 159 -18 47 -20 78 -20
282 l0 230 85 0 85 0 0 -213z m2475 186 c81 -43 125 -114 125 -199 0 -97 -44
-174 -123 -217 -39 -20 -55 -22 -227 -22 l-185 0 0 80 0 80 172 5 c98 3 177 9
182 15 22 22 23 70 3 95 -20 24 -25 25 -172 28 -165 4 -211 -1 -235 -24 -21
-22 -22 -300 -1 -330 13 -17 30 -19 185 -22 l171 -3 0 -80 0 -79 -173 0 c-209
0 -247 10 -306 76 -51 58 -61 103 -61 272 0 223 39 301 170 343 14 4 117 7
230 6 189 -2 208 -4 245 -24z m405 -233 l0 -260 33 0 c77 1 197 83 281 193 62
82 126 198 151 275 l17 52 89 0 c59 0 89 -4 89 -11 0 -25 -75 -198 -118 -274
-97 -172 -207 -282 -347 -350 -141 -68 -285 -87 -339 -44 l-26 20 0 330 0 329
85 0 85 0 0 -260z m-9896 -54 c85 -91 106 -119 106 -142 -1 -23 -23 -52 -104
-136 l-104 -108 -71 0 c-39 0 -71 3 -71 8 0 4 51 59 114 121 l114 114 -111
119 c-62 65 -113 123 -115 128 -2 6 25 10 66 10 l70 0 106 -114z m726 -331 l0
-55 -270 0 -270 0 0 55 0 55 270 0 270 0 0 -55z"/>
<path d="M5517 2464 c-4 -4 -7 -43 -7 -86 l0 -78 105 0 106 0 -3 83 -3 82 -95
3 c-53 1 -99 0 -103 -4z"/>
<path d="M10510 1559 l0 -290 218 3 219 3 48 30 c75 47 89 83 93 240 4 144 -4
187 -45 236 -52 62 -83 69 -320 69 l-213 0 0 -291z"/>
</g>
</svg>
